<?xml version="1.0" standalone="no"?>
<!DOCTYPE svg PUBLIC "-//W3C//DTD SVG 1.1//EN" "http://www.w3.org/Graphics/SVG/1.1/DTD/svg11.dtd" >
<svg xmlns="http://www.w3.org/2000/svg" xmlns:xlink="http://www.w3.org/1999/xlink" version="1.1">
<metadata></metadata>
<defs>
<font id="monitordisplay" horiz-adv-x="1228" >
<font-face units-per-em="2048" ascent="1638" descent="-410" />
<missing-glyph horiz-adv-x="409" />
<glyph horiz-adv-x="0" />
<glyph horiz-adv-x="682" />
<glyph unicode=" "  horiz-adv-x="409" />
<glyph unicode="&#x09;" horiz-adv-x="409" />
<glyph unicode="&#xa0;" horiz-adv-x="409" />
<glyph unicode="!" horiz-adv-x="614" d="M61 1434h492l-246 -1004zM102 143l205 205l205 -205l-205 -184z" />
<glyph unicode="&#x22;" horiz-adv-x="983" d="M41 1237l205 205l205 -205l-205 -389zM532 1237l205 205l205 -205l-205 -389z" />
<glyph unicode="#" horiz-adv-x="1220" d="M41 410v41h248l133 491h-238v41h248l121 451h45l-121 -451h410l121 451h45l-121 -451h248v-41h-258l-134 -491h248v-41h-258l-110 -410h-45l110 410h-409l-111 -410h-45l111 410h-238zM334 451h409l134 491h-410z" />
<glyph unicode="$" horiz-adv-x="1198" d="M41 1004q0 80 23 147t59 112.5t85.5 81t98 55.5t100.5 32.5t89 17t67 4.5h10v143h41v-145q105 -5 220.5 -28.5t199.5 -61.5v-410l-346 443q-42 13 -74 16v-469q33 -16 87.5 -40.5t93.5 -42t90 -44t86.5 -50t73 -57t60.5 -68.5t37.5 -81t14.5 -98q0 -105 -39.5 -189.5 t-98 -135.5t-135.5 -86t-142 -49.5t-128 -18.5v-146h-41v144q-79 0 -218 22.5t-253 69.5v411l349 -442q69 -24 122 -21v492q-31 15 -87 41t-92 43t-87.5 45t-85 52t-71 59t-59 71t-36 82.5t-14.5 98.5zM389 1188q0 -128 184 -223v446q-82 -9 -133 -70t-51 -153zM614 27 q84 16 139.5 78.5t55.5 160.5q0 70 -51 123t-144 103v-465z" />
<glyph unicode="%" horiz-adv-x="1546" d="M61 1096q0 148 92 248t236 100t236 -100t92 -248t-92 -248t-236 -100t-236 100t-92 248zM297 1096q0 -190 17 -259t75 -69t75 69t17 259t-17 258.5t-75 68.5q-21 0 -36 -7t-25 -26t-16.5 -41.5t-9.5 -63.5t-4 -82.5t-1 -106.5zM336 0l829 1434h45l-829 -1434h-45z M829 338q0 148 92 248t236 100t236 -100t92 -248t-92 -248t-236 -100t-236 100t-92 248zM1065 338q0 -190 17 -259t75 -69t75 69t17 259t-17 259t-75 69q-31 0 -49.5 -16.5t-28 -61t-12 -98t-2.5 -152.5z" />
<glyph unicode="&#x26;" horiz-adv-x="1548" d="M41 338q0 92 49 183t139 155.5t197 75.5l-90 129q-40 58 -55 107.5t-15 107.5q0 165 115.5 256.5t304.5 91.5q146 0 272.5 -32t208.5 -81l-266 -264l-235 336q-51 0 -76 -23.5t-24 -59.5t16.5 -76t42.5 -77l512 -729l114 115l-143 205h410l-357 -357l283 -401h-492 l-204 291q-32 -151 -131 -226t-228 -75q-40 0 -83.5 10t-91.5 36t-86 64t-62.5 100t-24.5 138zM358 543q0 -98 68 -172t178 -74q80 0 117 33l-268 385q-95 -59 -95 -172z" />
<glyph unicode="'" horiz-adv-x="491" d="M41 1237l205 205l205 -205l-205 -389z" />
<glyph unicode="(" horiz-adv-x="421" d="M82 614q0 158 29.5 308.5t68 250t84.5 183.5t70.5 117t34.5 43l32 -25q-10 -10 -33.5 -41.5t-67.5 -112.5t-81 -177.5t-65.5 -243.5t-28.5 -302t28.5 -302t65.5 -243t81 -177t67.5 -112.5t33.5 -41.5l-32 -25q-10 10 -34.5 43t-70.5 117t-84.5 183t-68 249.5t-29.5 308.5 z" />
<glyph unicode=")" horiz-adv-x="421" d="M20 -262q10 10 33.5 41.5t68 112.5t81.5 177t65.5 243t28.5 302t-28.5 302t-65.5 243.5t-81.5 177.5t-68 112.5t-33.5 41.5l33 25q10 -10 34.5 -43t70.5 -117t84.5 -183.5t68 -250t29.5 -308.5t-29.5 -308.5t-68 -249.5t-84.5 -183t-70.5 -117t-34.5 -43z" />
<glyph unicode="*" horiz-adv-x="942" d="M61 881v286l334 -100l-254 240l250 143l80 -338l80 338l250 -143l-254 -240l334 100v-286l-334 100l254 -240l-250 -143l-80 338l-80 -338l-250 143l254 240z" />
<glyph unicode="+" horiz-adv-x="1024" d="M61 635v41h431v430h40v-430h431v-41h-431v-430h-40v430h-431z" />
<glyph unicode="," horiz-adv-x="491" d="M41 143l205 205q53 -29 81.5 -46t61.5 -43.5t47.5 -54.5t14.5 -61q0 -55 -34 -113.5t-90 -109t-117.5 -92t-127.5 -74.5l-21 21q43 34 62.5 51t42.5 43t31 51.5t8 59.5q0 26 -11 47.5t-38 43t-48.5 34.5t-66.5 38z" />
<glyph unicode="-" horiz-adv-x="655" d="M61 492v40h533v-40h-533z" />
<glyph unicode="." horiz-adv-x="491" d="M41 143l205 205l205 -205l-205 -184z" />
<glyph unicode="/" horiz-adv-x="610" d="M41 -287l483 1803h45l-483 -1803h-45z" />
<glyph unicode="0" d="M41 717q0 117 20 222.5t64 200.5t109.5 164t163 109.5t216.5 40.5t216.5 -40.5t163 -109.5t110 -164t64.5 -200.5t20 -222.5t-20 -222.5t-64.5 -200.5t-110 -164t-163 -109.5t-216.5 -40.5t-216.5 40.5t-163 109.5t-109.5 164t-64 200.5t-20 222.5zM451 451 q0 -80 2 -135.5t8.5 -107.5t17.5 -84.5t29 -57.5t44 -35.5t62 -10.5t62 10.5t44 35.5t29.5 57.5t18 84.5t8.5 107.5t2 135.5v532q0 81 -2 136t-8 107t-17.5 84t-29.5 57t-44.5 35.5t-62.5 10.5t-62.5 -10.5t-44.5 -35.5t-29 -57t-17 -84.5t-8 -107t-2 -135.5v-532z" />
<glyph unicode="1" horiz-adv-x="778" d="M20 1198l594 277v-1311l123 -164h-655l123 164v952z" />
<glyph unicode="2" horiz-adv-x="1167" d="M20 1270q99 79 189 120.5t165 52.5t189 11q250 0 386 -93.5t136 -275.5q0 -72 -16.5 -134t-57.5 -123t-94 -115.5t-142.5 -122t-186 -131t-240.5 -152.5h594l164 123v-430h-1065q253 304 397.5 510.5t201 337t56.5 237.5q0 103 -20 171.5t-57.5 101t-76 44t-91.5 11.5 l-226 -532z" />
<glyph unicode="3" d="M41 82l205 430l225 -481h41q127 0 191.5 95.5t64.5 262.5q0 53 -7.5 96.5t-27.5 87t-52.5 76t-86 57.5t-125.5 37v9q140 31 199 106t59 227q0 138 -65.5 228t-190.5 90l-225 -471l-185 379q208 143 553 143q147 0 265.5 -40t193 -125t74.5 -204q0 -120 -95.5 -205 t-283.5 -122q200 -31 310 -127t110 -242q0 -85 -37 -154t-99.5 -116t-147 -78.5t-178 -46t-194.5 -14.5q-303 0 -491 102z" />
<glyph unicode="4" horiz-adv-x="1290" d="M20 410l512 1024h594l-880 -983h409v204l410 246v-450h205v-41h-205v-246l123 -164h-656l123 164v246h-635z" />
<glyph unicode="5" horiz-adv-x="1198" d="M41 164q84 -84 216.5 -134t264.5 -50q95 0 182 16t167 53t138.5 92t93 137t34.5 183q0 130 -67.5 234t-179.5 160t-245 56q-113 0 -206 -37.5t-234 -125.5l31 358h757l103 328h-881l-61 -748q124 62 225 62q171 0 264.5 -92t93.5 -267q0 -57 -10 -115t-32 -118t-67 -98 t-106 -38h-41l-225 492z" />
<glyph unicode="6" horiz-adv-x="1249" d="M41 717q0 375 151 556t484 181q102 0 234 -26t247 -76l-205 -379l-215 409q-15 31 -61 31q-152 0 -187 -119.5t-38 -525.5q73 56 158.5 83.5t166 25t156 -32t132 -80.5t90.5 -127t34 -166q0 -223 -142 -357t-411 -134q-289 0 -441.5 193.5t-152.5 543.5zM451 727 q0 -263 18.5 -416.5t58 -222t107.5 -68.5q59 0 97 57.5t52.5 145t14.5 207.5q0 205 -96 290t-252 7z" />
<glyph unicode="7" horiz-adv-x="1075" d="M20 881l41 553h1004l-440 -1434h-471l747 1106h-635z" />
<glyph unicode="8" d="M61 334q0 127 84 218t234 114q-59 36 -101 69.5t-86 82.5t-67 111.5t-23 135.5q0 195 134 292t378 97q134 0 245 -35t179 -104t68 -158q0 -109 -78.5 -188.5t-214.5 -102.5q113 -68 179 -116.5t113.5 -104.5t65 -115t17.5 -141q0 -79 -36 -151t-104.5 -130t-180.5 -93 t-253 -35q-270 0 -411.5 95.5t-141.5 258.5zM348 358q0 -63 17.5 -122.5t50 -108t84 -78t114.5 -29.5q94 0 149.5 53.5t55.5 151.5q0 47 -24 95t-61.5 89t-94 84.5t-109 77t-118.5 70.5q-26 -42 -45 -119.5t-19 -163.5zM430 1239q0 -47 19 -87t66 -83.5t105 -83t158 -100.5 q25 42 43.5 118.5t18.5 163.5q0 106 -66 176t-160 70q-78 0 -131 -49t-53 -125z" />
<glyph unicode="9" horiz-adv-x="1249" d="M61 963q0 223 142 357t411 134q289 0 441.5 -193.5t152.5 -543.5q0 -375 -151 -556t-484 -181q-102 0 -234 26t-247 76l205 379l215 -410q16 -31 61 -31q55 0 91.5 11t62 48.5t39 74.5t21 125.5t9.5 163.5t3 223q-73 -56 -158.5 -83.5t-166 -25t-156.5 32t-132.5 80.5 t-90.5 127t-34 166zM451 1004q0 -205 96 -290t252 -7q0 263 -19 416.5t-58.5 221.5t-107.5 68q-163 0 -163 -409z" />
<glyph unicode=":" horiz-adv-x="491" d="M41 143l205 205l205 -205l-205 -184zM41 799l205 205l205 -205l-205 -185z" />
<glyph unicode=";" horiz-adv-x="491" d="M41 143l205 205q53 -29 81.5 -46t61.5 -43.5t47.5 -54.5t14.5 -61q0 -55 -34 -113.5t-90 -109t-117.5 -92t-127.5 -74.5l-21 21q43 34 62.5 51t42.5 43t31 51.5t8 59.5q0 26 -11 47.5t-38 43t-48.5 34.5t-66.5 38zM41 799l205 205l205 -205l-205 -185z" />
<glyph unicode="&#x3c;" horiz-adv-x="974" d="M61 655l791 369v-43l-698 -326l698 -325v-43z" />
<glyph unicode="=" horiz-adv-x="1024" d="M61 451v41h902v-41h-902zM61 819v41h902v-41h-902z" />
<glyph unicode="&#x3e;" horiz-adv-x="974" d="M123 287v43l698 325l-698 326v43l790 -369z" />
<glyph unicode="?" horiz-adv-x="1064" d="M0 1270q99 79 189 120.5t165 52.5t189 11q239 0 380.5 -105t141.5 -264q0 -67 -12 -118.5t-48 -107t-98.5 -99.5t-166.5 -87t-248 -79v-143h-41v215q96 61 160.5 168.5t64.5 250.5q0 70 -9.5 124t-27.5 89t-39.5 58.5t-51 35.5t-57 16.5t-61.5 4.5l-225 -532zM266 143 l205 205l205 -205l-205 -184z" />
<glyph unicode="@" horiz-adv-x="1972" d="M61 389q0 224 84 421t223.5 332.5t324 213.5t382.5 78q191 0 350 -62.5t264.5 -169.5t163.5 -248t58 -299q0 -129 -43.5 -251.5t-117 -215t-178 -148.5t-220.5 -56q-216 0 -308 170q-74 -74 -184 -119t-205 -45q-118 0 -195 80t-50 217q18 92 88 161.5t174 109t223 58.5 t252 19q52 192 48.5 275t-89.5 83l-328 -327l-153 235q96 66 225 99.5t266 33.5q90 0 168.5 -21t136 -60t83 -100.5t7.5 -135.5l-108 -461q-9 -62 -9.5 -100t14 -60t31.5 -29.5t42 -7.5q40 0 91 28t103 82.5t95 125t70.5 165.5t27.5 195q0 156 -58 292.5t-161 234.5 t-251.5 154.5t-322.5 56.5q-155 0 -301 -49t-266.5 -140t-211.5 -213.5t-141.5 -278t-50.5 -323.5q0 -111 25.5 -209t71 -174t109 -138.5t139 -106t161 -73t174 -43.5t179.5 -14q268 0 522 152l20 -31q-95 -63 -233.5 -112.5t-308.5 -49.5q-137 0 -263 26.5t-244 87.5 t-204.5 151t-138.5 227.5t-52 306.5zM778 317q-9 -42 1 -75.5t35.5 -53t60.5 -27t79.5 1t89.5 32.5l93 399q-50 -4 -98.5 -18t-104 -43t-97.5 -84.5t-59 -131.5z" />
<glyph unicode="A" horiz-adv-x="1331" d="M20 0l175 379l276 870l-61 185h460l441 -1434h-615l123 164l-133 409h-379l-61 -194l225 -379h-451zM319 614h353l-180 553z" />
<glyph unicode="B" horiz-adv-x="1341" d="M41 0l123 164v1106l-123 164h625q292 0 453 -95.5t161 -253.5q0 -118 -98 -205.5t-277 -127.5q200 -31 308 -124t108 -239q0 -184 -167.5 -286.5t-467.5 -102.5h-645zM573 41h72q128 0 192 91.5t64 256.5q0 164 -64 251t-192 87h-72v-686zM573 768h31q125 0 190.5 89.5 t65.5 227.5q0 137 -65.5 222.5t-190.5 85.5h-31v-625z" />
<glyph unicode="C" horiz-adv-x="1269" d="M41 717q0 151 46 283.5t132 234t220 160.5t298 59q108 0 242.5 -24.5t228.5 -67.5v-410l-346 443q-46 18 -125 18q-53 0 -94 -19t-70.5 -59.5t-49 -96t-31 -136.5t-16.5 -173t-5 -212q0 -178 14.5 -304.5t48 -216t89 -133t135.5 -43.5q55 0 104 19l346 442v-409 q-94 -43 -228.5 -67.5t-242.5 -24.5q-164 0 -298 59t-220 160.5t-132 234t-46 283.5z" />
<glyph unicode="D" horiz-adv-x="1372" d="M41 0l123 164v1106l-123 164h655q146 0 267 -57.5t200.5 -155.5t123.5 -228t44 -276t-44 -276t-123.5 -228t-200.5 -155.5t-267 -57.5h-655zM573 41h82q131 0 193.5 165.5t62.5 510.5t-62.5 510.5t-193.5 165.5h-82v-1352z" />
<glyph unicode="E" d="M41 0l123 164v1106l-123 164h1147v-410l-410 369h-205v-656h103l205 185v-410l-205 184h-103v-655h205l410 369v-410h-1147z" />
<glyph unicode="F" d="M41 0l123 164v1106l-123 164h1147v-410l-410 369h-205v-656h103l205 185v-410l-205 184h-103v-532l205 -164h-737z" />
<glyph unicode="G" horiz-adv-x="1392" d="M41 717q0 151 46 283.5t132 234t220 160.5t298 59q108 0 242.5 -24.5t228.5 -67.5v-410l-346 443q-46 18 -125 18q-53 0 -94 -19t-70.5 -59.5t-49 -96t-31 -136.5t-16.5 -173t-5 -212q0 -345 67.5 -521t198.5 -176q29 0 59 10t44 31v410l-123 164h655l-123 -164v-491 l-348 51q-85 -51 -205 -51q-150 0 -275 59t-207 160t-127.5 234.5t-45.5 283.5z" />
<glyph unicode="H" horiz-adv-x="1556" d="M41 0l123 164v1106l-123 164h655l-123 -164v-533h410v533l-123 164h656l-123 -164v-1106l123 -164h-656l123 164v532h-410v-532l123 -164h-655z" />
<glyph unicode="I" horiz-adv-x="737" d="M41 0l123 164v1106l-123 164h655l-123 -164v-1106l123 -164h-655z" />
<glyph unicode="J" horiz-adv-x="696" d="M-113 -379q42 37 62 54.5t50.5 48t42.5 48t31.5 50.5t26 58t17.5 69t13.5 85.5t7 105.5t5 131t0.5 159v840l-123 164h656l-123 -164v-901q0 -130 -22 -238t-59.5 -184t-90.5 -134.5t-111 -94t-126 -58t-129.5 -31t-127.5 -8.5z" />
<glyph unicode="K" horiz-adv-x="1474" d="M41 0l123 164v1106l-123 164h655l-123 -164v-574h41l441 420l-226 318h625l-522 -502l522 -932h-655l82 164l-267 491h-41v-491l123 -164h-655z" />
<glyph unicode="L" d="M41 0l123 164v1106l-123 164h655l-123 -164v-1229h205l410 369v-410h-1147z" />
<glyph unicode="M" horiz-adv-x="1771" d="M20 0l205 379v768l-133 287h451l409 -871l246 604v267h533l-123 -164v-1106l123 -164h-656l123 164v891l-430 -1065l-502 1065v-676l205 -379h-451z" />
<glyph unicode="N" horiz-adv-x="1443" d="M20 1434h482l676 -1223v844l-205 379h450l-204 -379v-1055h-400l-522 942v-563l205 -379h-451l205 379v635z" />
<glyph unicode="O" horiz-adv-x="1413" d="M51 717q0 150 45.5 283.5t128 234.5t207.5 160t275 59t275 -59t207 -160t127.5 -234.5t45.5 -283.5t-45.5 -283.5t-127.5 -234.5t-207 -160t-275 -59t-275 59t-207.5 160t-128 234.5t-45.5 283.5zM502 717q0 -115 1.5 -194.5t6.5 -158t14.5 -129t24.5 -95.5t37 -69 t52 -37.5t69 -13.5t69 13.5t52 37.5t36.5 69t24 95t14.5 129.5t6.5 158.5t1.5 194t-1.5 194t-6.5 158t-14.5 129t-24 95t-36.5 69t-51.5 37.5t-69.5 13.5t-69.5 -13.5t-51.5 -37.5t-37 -68.5t-24.5 -95t-14.5 -129t-6.5 -158t-1.5 -194.5z" />
<glyph unicode="P" horiz-adv-x="1341" d="M41 0l123 164v1106l-123 164h625q300 0 467 -118t167 -333t-167 -333t-467 -118h-93v-368l205 -164h-737zM573 573h52q128 0 192 107t64 303t-64 303t-192 107h-52v-820z" />
<glyph unicode="Q" horiz-adv-x="1392" d="M41 717q0 150 45.5 283.5t127.5 234.5t207 160t275 59t275 -59t207.5 -160t128 -234.5t45.5 -283.5t-45.5 -283.5t-128 -234.5t-207.5 -160t-275 -59q-108 0 -209 32l-47 -53q112 -20 241.5 -53t207 -53t163.5 -32q40 -6 77 -6q42 0 80 7q72 14 143 55 q-10 -19 -28.5 -60.5t-31 -68t-41 -61.5t-62 -56t-89.5 -36t-127 -15q-63 0 -235.5 49t-333.5 93q-136 37 -192 37q-10 0 -17 -1l254 269q-127 52 -220 156t-140.5 241t-47.5 293zM492 717q0 -115 1.5 -194t6.5 -158.5t14.5 -129.5t24 -95t36.5 -69t52 -37.5t69 -13.5 q46 0 79 16.5t56 56.5t36.5 90t21 135.5t10 174.5t2.5 224q0 115 -1.5 194.5t-6.5 158t-14.5 129t-24.5 95t-37 68.5t-51.5 37.5t-69.5 13.5t-69.5 -13.5t-51.5 -37.5t-36.5 -69t-24 -95t-14.5 -129t-6.5 -158t-1.5 -194z" />
<glyph unicode="R" horiz-adv-x="1433" d="M41 0l123 164v1106l-123 164h627q302 0 468.5 -98t166.5 -281q0 -146 -108.5 -239t-309.5 -124l252 -108l276 -584h-573l82 164l-242 512h-12h-95v-512l123 -164h-655zM573 717h54q128 0 192 87t64 251t-64 251t-192 87h-54v-676z" />
<glyph unicode="S" horiz-adv-x="1198" d="M41 1004q0 80 23 147t59 112.5t85.5 81t98 55.5t100.5 32.5t89 17t67 4.5q108 0 242.5 -24.5t228.5 -67.5v-410l-346 443q-50 18 -94 18q-64 1 -116 -37q-88 -64 -89 -188q0 -51 26.5 -94t70.5 -75.5t102 -62t121.5 -57.5t127 -58t121.5 -67t102 -80t70.5 -103t26.5 -130 q0 -95 -31.5 -173.5t-84 -129t-114.5 -87.5t-130.5 -55.5t-123 -27t-100.5 -8.5q-79 0 -218 22.5t-253 69.5v411l349 -442q49 -18 100 -20h11q45 0 86 14q46 16 82 45.5t57.5 77.5t21.5 108q0 49 -26.5 91t-70.5 74t-102 62t-121.5 59t-127 59.5t-121.5 69t-102 83.5 t-70.5 106.5t-26.5 133.5z" />
<glyph unicode="T" horiz-adv-x="1392" d="M41 1004v430h1311v-430l-369 389h-82v-1229l123 -164h-655l123 164v1229h-82z" />
<glyph unicode="U" horiz-adv-x="1372" d="M20 1434h656l-123 -164v-840q0 -46 0.5 -67.5t2 -62t5.5 -60t12 -51t19.5 -47.5t29.5 -36t41 -29.5t54.5 -16.5t70.5 -7q108 0 184 56t110 144t34 198v604l-205 379h451l-205 -379v-584q0 -82 -12.5 -150t-45.5 -133t-85.5 -109.5t-138.5 -71.5t-199 -27 q-101 0 -181 13.5t-135 36t-95.5 58.5t-63.5 73.5t-36.5 89t-17.5 96.5t-4 104v819z" />
<glyph unicode="V" horiz-adv-x="1320" d="M20 1434l441 -1434h340l336 1055l174 379h-451l225 -379l-245 -789l-328 1004l123 164h-615z" />
<glyph unicode="W" horiz-adv-x="2181" d="M31 1434h614l-123 -164l328 -1004l190 613l-170 555h615l-123 -164l328 -1004l245 789l-225 379h451l-174 -379l-336 -1055h-340l-246 799l-254 -799h-340z" />
<glyph unicode="X" horiz-adv-x="1433" d="M20 0l539 580l-539 854h748l-143 -185l225 -356l235 254l-184 287h512l-539 -580l539 -854h-747l143 184l-225 357l-236 -254l184 -287h-512z" />
<glyph unicode="Y" horiz-adv-x="1341" d="M20 1434l451 -902v-368l-123 -164h656l-123 164v430l256 502l215 338h-451l184 -338l-215 -420l-297 594l123 164h-676z" />
<glyph unicode="Z" horiz-adv-x="1290" d="M41 0l717 1393h-226l-471 -389v430h1188l-717 -1393h226l471 389v-430h-1188z" />
<glyph unicode="[" horiz-adv-x="460" d="M164 -287v1803h276v-43h-233v-1717h233v-43h-276z" />
<glyph unicode="\" horiz-adv-x="610" d="M41 1516h45l483 -1803h-45z" />
<glyph unicode="]" horiz-adv-x="460" d="M20 -244h234v1717h-234v43h277v-1803h-277v43z" />
<glyph unicode="^" horiz-adv-x="860" d="M61 684l369 791l369 -791h-43l-326 698l-326 -698h-43z" />
<glyph unicode="_" horiz-adv-x="1024" d="M10 -123h1004v-41h-1004v41z" />
<glyph unicode="`" horiz-adv-x="593" d="M61 1434h410l61 -328z" />
<glyph unicode="a" horiz-adv-x="1187" d="M41 287q0 92 54 161.5t148 109t207 58.5t246 19q0 204 -12 262q-16 76 -70 91q-18 5 -41 5l-256 -327l-204 235q81 66 203.5 99.5t256.5 33.5q89 0 172 -21.5t150.5 -60.5t108 -102t40.5 -139v-578l123 -133h-471v154q-53 -75 -148 -119.5t-190 -44.5q-55 0 -110 19.5 t-102 55.5t-76 94t-29 128zM399 317q0 -69 47.5 -113.5t113.5 -45.5h3q64 0 133 37v399q-50 -4 -95.5 -18t-94 -43t-78 -84.5t-29.5 -131.5z" />
<glyph unicode="b" d="M20 1372l451 123v-655q137 194 338 194q58 0 109 -14.5t100 -51.5t83.5 -94.5t55.5 -150t21 -211.5t-21 -211.5t-55.5 -150t-83.5 -94.5t-100 -51.5t-109 -14.5q-123 0 -215.5 57t-142.5 127l-328 -184v1259zM471 225q88 -50 157 -50q12 -1 24 1q78 10 122.5 97.5 t44.5 238.5t-45 238q-44 88 -122 98q-12 2 -24 1q-69 0 -157 -50v-574z" />
<glyph unicode="c" horiz-adv-x="1075" d="M41 512q0 107 38.5 204t105.5 169.5t163 115.5t205 43q100 0 186.5 -17t142 -43.5t85.5 -46t47 -36.5l-205 -235l-256 338q-92 0 -112.5 -98t-20.5 -374q0 -127 87.5 -217t229.5 -90q93 0 157 33t150 111q-10 -48 -34 -99.5t-67 -104t-97.5 -93t-131 -66.5t-161.5 -26 q-109 0 -205 43t-163 115.5t-105.5 169.5t-38.5 204z" />
<glyph unicode="d" horiz-adv-x="1249" d="M51 512q0 502 369 502q215 0 338 -174v409l-62 123l410 123v-1362l123 -133h-471v184q-137 -194 -338 -194q-58 0 -109 14.5t-100 51.5t-83.5 94.5t-55.5 150t-21 211.5zM410 512q0 -151 44 -238q44 -88 122 -98q12 -2 25 -1q69 0 157 50v574q-88 50 -157 50 q-13 1 -25 -1q-78 -10 -122 -97.5t-44 -238.5z" />
<glyph unicode="e" horiz-adv-x="1116" d="M51 512q0 107 38.5 204t105.5 169.5t163 115.5t205 43q144 0 263 -72.5t184 -189.5t65 -250h-645q0 -92 47 -164.5t114 -107.5t136 -35q74 0 132.5 18.5t98 45.5t97.5 80q-10 -48 -34.5 -99.5t-67 -104t-97.5 -93t-131.5 -66.5t-161.5 -26q-109 0 -205 43t-163 115.5 t-105.5 169.5t-38.5 204zM430 573h266q0 89 -0.5 130t-4 102.5t-12 88.5t-23 57.5t-37.5 41.5t-56 11t-56 -11t-37.5 -41.5t-23 -57.5t-12 -88.5t-4 -102.5t-0.5 -130z" />
<glyph unicode="f" horiz-adv-x="870" d="M41 0l123 133v850h-123v41h123q0 198 101 309t247 111q126 0 205 -29t153 -84l-153 -174l-164 246q-41 0 -41 -41v-338h184v-41h-184v-840l205 -143h-676z" />
<glyph unicode="g" horiz-adv-x="1157" d="M41 82l285 340q-234 55 -234 295q0 141 114 229t347 88q113 0 170.5 -12.5t146.5 -48.5l246 215v-297h-194q102 -69 102 -174q0 -169 -121.5 -243.5t-349.5 -74.5q-107 0 -184 13l-52 -64l359 -51q226 -32 333 -106t107 -222q0 -95 -51.5 -172t-134.5 -123t-180.5 -70 t-196.5 -24q-111 0 -200 12.5t-158 38.5t-106.5 70t-37.5 104q0 76 59.5 137t204.5 111q-184 29 -274 29zM268 -143q0 -94 80.5 -160t204.5 -66q106 0 196.5 50.5t90.5 123.5q0 45 -43 84.5t-117 68.5t-154.5 50t-173.5 37q-84 -87 -84 -188zM451 672q0 -16 1.5 -45.5 t4 -47.5t7 -42.5t12.5 -39.5t18 -29.5t25 -21t34 -6.5t34 6.5t25 21t18 29.5t12.5 39.5t7 42.5t4 47.5t1.5 45.5v45v45t-1.5 45.5t-4 47t-7 42t-12.5 39.5t-18 29.5t-25 21t-34 6.5t-34 -6.5t-25 -21t-18 -29.5t-12.5 -39.5t-7 -42t-4 -47t-1.5 -45.5v-45v-45z" />
<glyph unicode="h" horiz-adv-x="1280" d="M31 0l123 133v1116l-103 123l451 123v-612q127 151 317 151q161 0 249.5 -86.5t88.5 -240.5v-574l123 -133h-594l123 133v563q0 47 -16.5 83t-42 54.5t-50 27.5t-45.5 9q-93 0 -153 -43v-694l123 -133h-594z" />
<glyph unicode="i" horiz-adv-x="665" d="M41 0l123 133v758l-123 133h471v-891l123 -133h-594zM113 1270l204 205l205 -205l-205 -185z" />
<glyph unicode="j" horiz-adv-x="532" d="M-41 -430q39 15 67 46.5t44.5 70.5t26.5 93t13 104.5t3 115.5v891l-123 133h471v-993q0 -100 -27 -181t-84.5 -145t-157 -99.5t-233.5 -35.5zM61 1270l205 205l205 -205l-205 -185z" />
<glyph unicode="k" horiz-adv-x="1198" d="M31 0l123 133v1116l-103 123l451 123v-932h20l338 266l-112 195h430l-379 -297l399 -727h-502l41 133l-215 389h-20v-389l123 -133h-594z" />
<glyph unicode="l" horiz-adv-x="634" d="M31 0l123 133v1116l-103 123l451 123v-1362l123 -133h-594z" />
<glyph unicode="m" horiz-adv-x="1945" d="M41 0l123 133v758l-123 133h471v-141q127 151 317 151q118 0 198.5 -47t115.5 -135q135 182 342 182q161 0 249.5 -86.5t88.5 -240.5v-574l123 -133h-594l123 133v563q0 47 -16.5 83t-42 54.5t-50 27.5t-45.5 9q-106 0 -168 -55q14 -46 14 -108v-574l123 -133h-594 l123 133v563q0 47 -16.5 83t-41.5 54.5t-49.5 27.5t-45.5 9q-94 0 -154 -43v-694l123 -133h-594z" />
<glyph unicode="n" horiz-adv-x="1290" d="M41 0l123 133v758l-123 133h471v-141q127 151 317 151q161 0 249.5 -86.5t88.5 -240.5v-574l123 -133h-594l123 133v563q0 47 -16.5 83t-41.5 54.5t-49.5 27.5t-45.5 9q-94 0 -154 -43v-694l123 -133h-594z" />
<glyph unicode="o" horiz-adv-x="1105" d="M41 512q0 107 38.5 204t105.5 169.5t163 115.5t205 43t205 -43t163 -115.5t105.5 -169.5t38.5 -204t-38.5 -204t-105.5 -169.5t-163 -115.5t-205 -43t-205 43t-163 115.5t-105.5 169.5t-38.5 204zM420 512q0 -277 12 -356q16 -104 71 -127q21 -9 50 -9q93 0 113 95 t20 397q0 277 -12 356q-16 104 -71 127q-21 9 -50 9q-93 0 -113 -95t-20 -397z" />
<glyph unicode="p" horiz-adv-x="1269" d="M41 -410l123 134v1167l-123 133h471v-184q137 194 338 194q58 0 109 -14.5t100 -51.5t83.5 -94.5t55.5 -150t21 -211.5t-21 -211.5t-55.5 -150t-83.5 -94.5t-100 -51.5t-109 -14.5q-201 0 -338 194v-450l205 -144h-676zM512 225q88 -50 157 -50q13 0 25 1q77 11 121.5 98 t44.5 238t-44.5 238t-121.5 98q-12 1 -25 1q-69 0 -157 -50v-574z" />
<glyph unicode="q" horiz-adv-x="1249" d="M51 512q0 119 21 211.5t55.5 150t83.5 94.5t100 51.5t109 14.5q123 0 215.5 -57t142.5 -127l328 184v-1310l123 -134h-676l205 144v450q-137 -194 -338 -194q-58 0 -109 14.5t-100 51.5t-83.5 94.5t-55.5 150t-21 211.5zM410 512q0 -151 44.5 -238t121.5 -98q12 -1 25 -1 q69 0 157 50v574q-88 50 -157 50q-13 0 -25 -1q-77 -11 -121.5 -98t-44.5 -238z" />
<glyph unicode="r" horiz-adv-x="1024" d="M41 0l123 133v758l-123 133h471v-207q16 23 38.5 58t35.5 55t35 45t43 38t53 22t71 9q57 0 102.5 -17t69.5 -41t39.5 -47.5t20.5 -40.5l4 -17l-184 -185l-236 185l-92 -133v-605l205 -143h-676z" />
<glyph unicode="s" horiz-adv-x="983" d="M51 72l215 256l236 -308q9 0 20 1t37.5 9t45.5 23t34.5 46.5t15.5 74.5q0 38 -24.5 70t-65 53.5t-92 44.5t-105 43t-105 49.5t-92 63t-65 85t-24.5 113.5q0 80 25.5 142t68 100t103.5 62.5t125 34t139 9.5q175 0 379 -92l-215 -256l-205 308q-18 0 -40 -7t-46.5 -22 t-41 -45t-16.5 -70q0 -44 25 -79.5t66 -58.5t93.5 -46.5t107.5 -43t107.5 -48t93.5 -61t66 -83t25 -112.5q0 -66 -23 -121t-63 -92t-89 -64.5t-104.5 -42t-105 -21.5t-96.5 -7q-91 0 -207.5 26.5t-202.5 65.5z" />
<glyph unicode="t" horiz-adv-x="686" d="M0 983h123v-758q0 -94 61 -164.5t176 -70.5q111 0 188 73t77 162q-3 -5 -10 -11.5t-28 -18t-44 -11.5q-36 0 -54 25.5t-18 66.5v707h195v41h-195v328l-348 -328h-123v-41z" />
<glyph unicode="u" horiz-adv-x="1269" d="M0 1024h471v-696q0 -47 16.5 -83t42 -54.5t50 -27.5t45.5 -9q93 0 153 43v694l-123 133h471v-891l123 -133h-471v141q-127 -151 -317 -151q-161 0 -249.5 86.5t-88.5 240.5v574z" />
<glyph unicode="v" horiz-adv-x="1034" d="M0 1024l379 -1024h246l389 1024h-318l164 -266l-194 -512l-236 645l102 133h-532z" />
<glyph unicode="w" horiz-adv-x="1751" d="M0 1024h532l-102 -133l236 -645l161 424l-131 354h533l-103 -133l236 -645l194 512l-163 266h317l-389 -1024h-246l-223 600l-227 -600h-246z" />
<glyph unicode="x" horiz-adv-x="1126" d="M20 0l410 410l-410 614h594l-102 -133l160 -240l168 168l-144 205h410l-410 -410l410 -614h-594l102 133l-159 240l-168 -168l143 -205h-410z" />
<glyph unicode="y" horiz-adv-x="1034" d="M0 1024h532l-102 -133l236 -645l194 512l-164 266h318l-441 -1147q-7 -16 -26.5 -63.5t-32.5 -78t-39 -73.5t-52 -69t-64.5 -45t-82.5 -19q-53 0 -97 17.5t-67.5 42t-36 43.5t-14.5 30l154 205l236 -133l16 41z" />
<glyph unicode="z" horiz-adv-x="1003" d="M41 0l512 983h-164l-328 -266v307h902l-512 -983h163l328 266v-307h-901z" />
<glyph unicode="{" horiz-adv-x="471" d="M41 594v41q85 0 124.5 35.5t39.5 87.5v532q0 117 66 171.5t180 54.5v-37q-205 0 -205 -189v-532q0 -54 -34.5 -95.5t-88.5 -48.5q54 -7 88.5 -48t34.5 -95v-532q0 -189 205 -189v-37q-114 0 -180 54.5t-66 171.5v532q0 52 -39.5 87.5t-124.5 35.5z" />
<glyph unicode="|" horiz-adv-x="450" d="M205 -451v1987h41v-1987h-41z" />
<glyph unicode="}" horiz-adv-x="471" d="M20 -250q205 0 205 189v532q0 54 34.5 95t88.5 48q-54 7 -88.5 48.5t-34.5 95.5v532q0 189 -205 189v37q114 0 180 -54.5t66 -171.5v-532q0 -52 39.5 -87.5t124.5 -35.5v-41q-85 0 -124.5 -35.5t-39.5 -87.5v-532q0 -117 -66 -171.5t-180 -54.5v37z" />
<glyph unicode="~" horiz-adv-x="962" d="M20 614q87 144 236 144q62 0 125 -25.5t108 -56.5t104.5 -56.5t113.5 -25.5q128 0 198 123l37 -21q-87 -143 -235 -143q-62 0 -125 25.5t-108 56.5t-104.5 56.5t-113.5 25.5q-129 0 -199 -123z" />
<glyph unicode="&#xa1;" horiz-adv-x="532" d="M20 -410l246 1004l246 -1004h-492zM61 881l205 184l205 -184l-205 -205z" />
<glyph unicode="&#xa2;" horiz-adv-x="1085" d="M61 512q0 107 38.5 204t105.5 169.5t163 115.5t205 43q80 0 166 -14l58 158h45l-60 -166q98 -23 161 -58t91 -63l-205 -235l-120 157l-183 -506q89 -92 232 -92q93 0 157 33t150 111q-10 -48 -34.5 -99.5t-67 -104t-97.5 -93t-131.5 -66.5t-161.5 -26q-87 0 -161 26 l-62 -170h-45l68 184q-141 62 -226.5 196t-85.5 296zM440 532q0 -97 54 -176l186 508l-107 140q-92 0 -112.5 -98t-20.5 -374z" />
<glyph unicode="&#xa3;" horiz-adv-x="1157" d="M41 0l123 164v532h-123v41h123v287q0 204 120.5 312t340.5 108q98 0 155 -2.5t154 -22t182 -57.5l-184 -410l-246 451h-82q-41 0 -41 -41v-625h266v-41h-266v-655h123l410 369v-410h-1055z" />
<glyph unicode="&#xa4;" horiz-adv-x="1146" d="M82 193l188 188q-106 116 -106 274q0 159 106 275l-188 188l29 29l188 -189q117 107 274 107q158 0 275 -107l188 189l29 -29l-188 -188q106 -116 106 -275q0 -158 -106 -274l188 -188l-29 -29l-188 188q-116 -106 -275 -106q-158 0 -274 106l-188 -188zM205 655 q0 -154 107 -261t261 -107t261.5 107t107.5 261t-107.5 261.5t-261.5 107.5t-261 -107.5t-107 -261.5z" />
<glyph unicode="&#xa5;" horiz-adv-x="1331" d="M20 1434h676l-123 -164l297 -594l215 420l-184 338h451l-215 -338l-256 -502h245v-41h-245v-143h245v-41h-245v-205l123 -164h-656l123 164v205h-266v41h266v122l-10 21h-256v41h235z" />
<glyph unicode="&#xa6;" horiz-adv-x="368" d="M164 348h41v-799h-41v799zM164 758v778h41v-778h-41z" />
<glyph unicode="&#xa8;" horiz-adv-x="942" d="M61 1270l205 205l205 -205l-205 -185zM471 1270l205 205l205 -205l-205 -185z" />
<glyph unicode="&#xa9;" horiz-adv-x="1638" d="M61 717q0 165 61 305t164.5 233.5t241.5 146t291 52.5t291 -52.5t241.5 -146t164.5 -233.5t61 -305t-61 -305t-164.5 -233.5t-241.5 -146t-291 -52.5t-291 52.5t-241.5 146t-164.5 233.5t-61 305zM102 717q0 -157 57.5 -289.5t155.5 -221t228 -137.5t276 -49t276 49 t228 137.5t155.5 221t57.5 289.5t-57.5 289.5t-155.5 220.5t-228 137t-276 49t-276 -49t-228 -137t-155.5 -220.5t-57.5 -289.5zM420 717q0 190 112 318t308 128q67 0 147.5 -14.5t138.5 -40.5v-248l-211 262q-25 8 -75 8q-93 0 -126.5 -96t-33.5 -317q0 -216 39 -315 t133 -99q38 0 63 8l211 262v-247q-58 -26 -138 -41t-146 -15q-132 0 -229.5 62t-145 162t-47.5 223z" />
<glyph unicode="&#xaa;" horiz-adv-x="864" d="M61 948q0 61 35.5 106.5t98 72t137.5 39t162 12.5q0 78 -1.5 110t-9 68t-24.5 46.5t-47 10.5l-168 -215l-135 156q53 42 134 64t169 22q79 0 148.5 -23.5t116 -73.5t46.5 -116v-381l80 -88h-309v100q-34 -49 -97.5 -77.5t-126.5 -28.5q-80 0 -144.5 52t-64.5 144z M297 969q0 -71 65.5 -97.5t131.5 15.5v264q-26 -3 -50 -8.5t-52 -18.5t-48 -32t-33.5 -51t-13.5 -72z" />
<glyph unicode="&#xab;" horiz-adv-x="897" d="M41 512l430 512h57l-430 -512l430 -512h-57zM369 512l430 512h57l-430 -512l430 -512h-57z" />
<glyph unicode="&#xad;" horiz-adv-x="655" d="M61 492v40h533v-40h-533z" />
<glyph unicode="&#xae;" horiz-adv-x="880" d="M0 1055q0 185 128 312.5t312 127.5q185 0 313 -128t128 -312q0 -185 -128.5 -313t-312.5 -128t-312 128t-128 313zM41 1055q0 -169 115 -284.5t284 -115.5t284.5 115.5t115.5 284.5t-115.5 284t-284.5 115t-284 -115t-115 -284zM240 840l39 51v348l-39 51h196 q95 0 148 -31.5t53 -89.5q0 -44 -33.5 -72.5t-95.5 -39.5l76 -33l88 -184h-180l26 51l-78 160h-4h-28v-160l38 -51h-206zM408 1071h16q82 0 82 98q0 101 -82 101h-16v-199z" />
<glyph unicode="&#xb0;" horiz-adv-x="614" d="M61 1208q0 100 73 173t173 73t173 -73t73 -173t-73 -172.5t-173 -72.5t-173 72.5t-73 172.5zM102 1208q0 -85 60 -144.5t145 -59.5t145 59.5t60 144.5t-60 145t-145 60t-145 -60t-60 -145z" />
<glyph unicode="&#xb4;" horiz-adv-x="593" d="M61 1106l62 328h409z" />
<glyph unicode="&#xb7;" horiz-adv-x="532" d="M61 614l205 205l205 -205l-205 -184z" />
<glyph unicode="&#xb8;" horiz-adv-x="604" d="M61 -346l103 151q35 -97 61.5 -140.5t61.5 -43.5q30 0 50.5 26.5t20.5 65.5q0 71 -45.5 108t-124.5 54l107 127h41l-53 -63q109 0 184.5 -49.5t75.5 -125.5q0 -82 -72 -128t-184 -46q-88 0 -146 21t-80 43z" />
<glyph unicode="&#xba;" horiz-adv-x="798" d="M61 1096q0 144 96.5 247t241.5 103t241.5 -103t96.5 -247t-96.5 -247.5t-241.5 -103.5t-241.5 103.5t-96.5 247.5zM311 1096q0 -110 1.5 -154.5t9.5 -93t26 -62.5t51 -14q61 0 74.5 62t13.5 262q0 109 -1.5 154t-9.5 93.5t-26 62t-51 13.5q-61 0 -74.5 -61.5 t-13.5 -261.5z" />
<glyph unicode="&#xbb;" horiz-adv-x="897" d="M41 0l430 512l-430 512h57l430 -512l-430 -512h-57zM369 0l430 512l-430 512h57l430 -512l-430 -512h-57z" />
<glyph unicode="&#xbf;" horiz-adv-x="1105" d="M41 -61q0 67 12 118.5t48 107t98.5 99.5t166.5 87t248 79v143h41v-215q-96 -61 -160.5 -168.5t-64.5 -250.5q0 -70 9.5 -124t27.5 -89t39.5 -58.5t51 -35.5t57 -16.5t61.5 -4.5l225 532l205 -389q-99 -79 -189 -120.5t-165 -52.5t-189 -11q-239 0 -380.5 105t-141.5 264z M430 881l205 184l205 -184l-205 -205z" />
<glyph unicode="&#xc0;" horiz-adv-x="1331" d="M20 0l175 379l276 870l-61 185h460l441 -1434h-615l123 164l-133 409h-379l-61 -194l225 -379h-451zM256 1843h410l61 -327zM319 614h353l-180 553z" />
<glyph unicode="&#xc1;" horiz-adv-x="1331" d="M20 0l175 379l276 870l-61 185h460l441 -1434h-615l123 164l-133 409h-379l-61 -194l225 -379h-451zM319 614h353l-180 553zM604 1516l62 327h409z" />
<glyph unicode="&#xc2;" horiz-adv-x="1331" d="M20 0l175 379l276 870l-61 185h460l441 -1434h-615l123 164l-133 409h-379l-61 -194l225 -379h-451zM307 1495l359 369l358 -369l-358 123zM319 614h353l-180 553z" />
<glyph unicode="&#xc3;" horiz-adv-x="1331" d="M20 0l175 379l276 870l-61 185h460l441 -1434h-615l123 164l-133 409h-379l-61 -194l225 -379h-451zM319 614h353l-180 553zM348 1546v21q0 120 52.5 193t131.5 73q43 0 103 -25.5t115.5 -51t89.5 -25.5q47 0 87.5 28.5t55.5 73.5v-31q0 -125 -51.5 -190.5t-132.5 -65.5 q-43 0 -102.5 26t-115 51.5t-89.5 25.5q-47 0 -88 -29t-56 -74z" />
<glyph unicode="&#xc4;" horiz-adv-x="1331" d="M20 0l175 379l276 870l-61 185h460l441 -1434h-615l123 164l-133 409h-379l-61 -194l225 -379h-451zM256 1679l205 205l205 -205l-205 -184zM319 614h353l-180 553zM666 1679l204 205l205 -205l-205 -184z" />
<glyph unicode="&#xc5;" horiz-adv-x="1331" d="M20 0l175 379l276 870l-61 185h460l441 -1434h-615l123 164l-133 409h-379l-61 -194l225 -379h-451zM319 614h353l-180 553zM461 1720q0 85 60 145t145 60t144.5 -60t59.5 -145t-59.5 -144.5t-144.5 -59.5t-145 59.5t-60 144.5zM502 1720q0 -69 47.5 -116.5t116.5 -47.5 t116 47.5t47 116.5t-47 116.5t-116 47.5t-116.5 -47.5t-47.5 -116.5z" />
<glyph unicode="&#xc7;" horiz-adv-x="1269" d="M41 717q0 151 46 283.5t132 234t220 160.5t298 59q108 0 242.5 -24.5t228.5 -67.5v-410l-346 443q-46 18 -125 18q-53 0 -94 -19t-70.5 -59.5t-49 -96t-31 -136.5t-16.5 -173t-5 -212q0 -178 14.5 -304.5t48 -216t89 -133t135.5 -43.5q55 0 104 19l346 442v-409 q-94 -43 -228.5 -67.5t-242.5 -24.5q-28 0 -86 4l-37 -45q109 0 184.5 -49.5t75.5 -125.5q0 -82 -72 -128t-184 -46q-88 0 -145.5 21t-79.5 43l103 151q36 -98 61.5 -141t60.5 -43q31 0 51.5 27t20.5 65q0 71 -45.5 108t-124.5 54l94 113q-137 20 -246.5 86t-180.5 163.5 t-108.5 220t-37.5 259.5z" />
<glyph unicode="&#xc8;" d="M41 0l123 164v1106l-123 164h1147v-410l-410 369h-205v-656h103l205 185v-410l-205 184h-103v-655h205l410 369v-410h-1147zM205 1843h409l62 -327z" />
<glyph unicode="&#xc9;" d="M41 0l123 164v1106l-123 164h1147v-410l-410 369h-205v-656h103l205 185v-410l-205 184h-103v-655h205l410 369v-410h-1147zM553 1516l61 327h410z" />
<glyph unicode="&#xca;" d="M41 0l123 164v1106l-123 164h1147v-410l-410 369h-205v-656h103l205 185v-410l-205 184h-103v-655h205l410 369v-410h-1147zM256 1495l358 369l359 -369l-359 123z" />
<glyph unicode="&#xcb;" d="M41 0l123 164v1106l-123 164h1147v-410l-410 369h-205v-656h103l205 185v-410l-205 184h-103v-655h205l410 369v-410h-1147zM205 1679l205 205l204 -205l-204 -184zM614 1679l205 205l205 -205l-205 -184z" />
<glyph unicode="&#xcc;" horiz-adv-x="737" d="M-41 1843h410l61 -327zM41 0l123 164v1106l-123 164h655l-123 -164v-1106l123 -164h-655z" />
<glyph unicode="&#xcd;" horiz-adv-x="737" d="M41 0l123 164v1106l-123 164h655l-123 -164v-1106l123 -164h-655zM307 1516l62 327h409z" />
<glyph unicode="&#xce;" horiz-adv-x="737" d="M10 1495l359 369l358 -369l-358 123zM41 0l123 164v1106l-123 164h655l-123 -164v-1106l123 -164h-655z" />
<glyph unicode="&#xcf;" horiz-adv-x="737" d="M-41 1679l205 205l205 -205l-205 -184zM41 0l123 164v1106l-123 164h655l-123 -164v-1106l123 -164h-655zM369 1679l204 205l205 -205l-205 -184z" />
<glyph unicode="&#xd1;" horiz-adv-x="1443" d="M20 1434h482l676 -1223v844l-205 379h450l-204 -379v-1055h-400l-522 942v-563l205 -379h-451l205 379v635zM406 1546v21q0 120 52.5 193t131.5 73q54 0 161 -51t146 -51q47 0 87.5 28.5t55.5 73.5v-31q0 -125 -51.5 -190.5t-132.5 -65.5q-54 0 -161 51.5t-146 51.5 q-46 0 -87 -29t-56 -74z" />
<glyph unicode="&#xd2;" horiz-adv-x="1413" d="M51 717q0 150 45.5 283.5t128 234.5t207.5 160t275 59t275 -59t207 -160t127.5 -234.5t45.5 -283.5t-45.5 -283.5t-127.5 -234.5t-207 -160t-275 -59t-275 59t-207.5 160t-128 234.5t-45.5 283.5zM297 1843h410l61 -327zM502 717q0 -115 1.5 -194.5t6.5 -158t14.5 -129 t24.5 -95.5t37 -69t52 -37.5t69 -13.5t69 13.5t52 37.5t36.5 69t24 95t14.5 129.5t6.5 158.5t1.5 194t-1.5 194t-6.5 158t-14.5 129t-24 95t-36.5 69t-51.5 37.5t-69.5 13.5t-69.5 -13.5t-51.5 -37.5t-37 -68.5t-24.5 -95t-14.5 -129t-6.5 -158t-1.5 -194.5z" />
<glyph unicode="&#xd3;" horiz-adv-x="1413" d="M51 717q0 150 45.5 283.5t128 234.5t207.5 160t275 59t275 -59t207 -160t127.5 -234.5t45.5 -283.5t-45.5 -283.5t-127.5 -234.5t-207 -160t-275 -59t-275 59t-207.5 160t-128 234.5t-45.5 283.5zM502 717q0 -115 1.5 -194.5t6.5 -158t14.5 -129t24.5 -95.5t37 -69 t52 -37.5t69 -13.5t69 13.5t52 37.5t36.5 69t24 95t14.5 129.5t6.5 158.5t1.5 194t-1.5 194t-6.5 158t-14.5 129t-24 95t-36.5 69t-51.5 37.5t-69.5 13.5t-69.5 -13.5t-51.5 -37.5t-37 -68.5t-24.5 -95t-14.5 -129t-6.5 -158t-1.5 -194.5zM645 1516l62 327h409z" />
<glyph unicode="&#xd4;" horiz-adv-x="1413" d="M51 717q0 150 45.5 283.5t128 234.5t207.5 160t275 59t275 -59t207 -160t127.5 -234.5t45.5 -283.5t-45.5 -283.5t-127.5 -234.5t-207 -160t-275 -59t-275 59t-207.5 160t-128 234.5t-45.5 283.5zM348 1495l359 369l358 -369l-358 123zM502 717q0 -115 1.5 -194.5 t6.5 -158t14.5 -129t24.5 -95.5t37 -69t52 -37.5t69 -13.5t69 13.5t52 37.5t36.5 69t24 95t14.5 129.5t6.5 158.5t1.5 194t-1.5 194t-6.5 158t-14.5 129t-24 95t-36.5 69t-51.5 37.5t-69.5 13.5t-69.5 -13.5t-51.5 -37.5t-37 -68.5t-24.5 -95t-14.5 -129t-6.5 -158 t-1.5 -194.5z" />
<glyph unicode="&#xd5;" horiz-adv-x="1413" d="M51 717q0 150 45.5 283.5t128 234.5t207.5 160t275 59t275 -59t207 -160t127.5 -234.5t45.5 -283.5t-45.5 -283.5t-127.5 -234.5t-207 -160t-275 -59t-275 59t-207.5 160t-128 234.5t-45.5 283.5zM389 1546v21q0 120 52.5 193t131.5 73q53 0 161 -51t147 -51 q47 0 87.5 28.5t55.5 73.5v-31q0 -125 -51.5 -190.5t-132.5 -65.5q-43 0 -103 26t-115.5 51.5t-89.5 25.5q-46 0 -87 -29t-56 -74zM502 717q0 -115 1.5 -194.5t6.5 -158t14.5 -129t24.5 -95.5t37 -69t52 -37.5t69 -13.5t69 13.5t52 37.5t36.5 69t24 95t14.5 129.5t6.5 158.5 t1.5 194t-1.5 194t-6.5 158t-14.5 129t-24 95t-36.5 69t-51.5 37.5t-69.5 13.5t-69.5 -13.5t-51.5 -37.5t-37 -68.5t-24.5 -95t-14.5 -129t-6.5 -158t-1.5 -194.5z" />
<glyph unicode="&#xd6;" horiz-adv-x="1413" d="M51 717q0 150 45.5 283.5t128 234.5t207.5 160t275 59t275 -59t207 -160t127.5 -234.5t45.5 -283.5t-45.5 -283.5t-127.5 -234.5t-207 -160t-275 -59t-275 59t-207.5 160t-128 234.5t-45.5 283.5zM297 1679l205 205l205 -205l-205 -184zM502 717q0 -115 1.5 -194.5 t6.5 -158t14.5 -129t24.5 -95.5t37 -69t52 -37.5t69 -13.5t69 13.5t52 37.5t36.5 69t24 95t14.5 129.5t6.5 158.5t1.5 194t-1.5 194t-6.5 158t-14.5 129t-24 95t-36.5 69t-51.5 37.5t-69.5 13.5t-69.5 -13.5t-51.5 -37.5t-37 -68.5t-24.5 -95t-14.5 -129t-6.5 -158 t-1.5 -194.5zM707 1679l204 205l205 -205l-205 -184z" />
<glyph unicode="&#xd7;" horiz-adv-x="913" d="M123 352l305 303l-305 303l31 31l303 -305l303 305l31 -31l-306 -303l306 -303l-31 -30l-303 305l-303 -305z" />
<glyph unicode="&#xd9;" horiz-adv-x="1372" d="M20 1434h656l-123 -164v-840q0 -46 0.5 -67.5t2 -62t5.5 -60t12 -51t19.5 -47.5t29.5 -36t41 -29.5t54.5 -16.5t70.5 -7q108 0 184 56t110 144t34 198v604l-205 379h451l-205 -379v-584q0 -82 -12.5 -150t-45.5 -133t-85.5 -109.5t-138.5 -71.5t-199 -27 q-101 0 -181 13.5t-135 36t-95.5 58.5t-63.5 73.5t-36.5 89t-17.5 96.5t-4 104v819zM283 1843h409l62 -327z" />
<glyph unicode="&#xda;" horiz-adv-x="1372" d="M20 1434h656l-123 -164v-840q0 -46 0.5 -67.5t2 -62t5.5 -60t12 -51t19.5 -47.5t29.5 -36t41 -29.5t54.5 -16.5t70.5 -7q108 0 184 56t110 144t34 198v604l-205 379h451l-205 -379v-584q0 -82 -12.5 -150t-45.5 -133t-85.5 -109.5t-138.5 -71.5t-199 -27 q-101 0 -181 13.5t-135 36t-95.5 58.5t-63.5 73.5t-36.5 89t-17.5 96.5t-4 104v819zM631 1516l61 327h410z" />
<glyph unicode="&#xdb;" horiz-adv-x="1372" d="M20 1434h656l-123 -164v-840q0 -46 0.5 -67.5t2 -62t5.5 -60t12 -51t19.5 -47.5t29.5 -36t41 -29.5t54.5 -16.5t70.5 -7q108 0 184 56t110 144t34 198v604l-205 379h451l-205 -379v-584q0 -82 -12.5 -150t-45.5 -133t-85.5 -109.5t-138.5 -71.5t-199 -27 q-101 0 -181 13.5t-135 36t-95.5 58.5t-63.5 73.5t-36.5 89t-17.5 96.5t-4 104v819zM334 1495l358 369l359 -369l-359 123z" />
<glyph unicode="&#xdc;" horiz-adv-x="1372" d="M20 1434h656l-123 -164v-840q0 -46 0.5 -67.5t2 -62t5.5 -60t12 -51t19.5 -47.5t29.5 -36t41 -29.5t54.5 -16.5t70.5 -7q108 0 184 56t110 144t34 198v604l-205 379h451l-205 -379v-584q0 -82 -12.5 -150t-45.5 -133t-85.5 -109.5t-138.5 -71.5t-199 -27 q-101 0 -181 13.5t-135 36t-95.5 58.5t-63.5 73.5t-36.5 89t-17.5 96.5t-4 104v819zM283 1679l204 205l205 -205l-205 -184zM692 1679l205 205l205 -205l-205 -184z" />
<glyph unicode="&#xdd;" horiz-adv-x="1341" d="M20 1434l451 -902v-368l-123 -164h656l-123 164v430l256 502l215 338h-451l184 -338l-215 -420l-297 594l123 164h-676zM604 1516l62 327h409z" />
<glyph unicode="&#xe0;" horiz-adv-x="1187" d="M41 287q0 92 54 161.5t148 109t207 58.5t246 19q0 204 -12 262q-16 76 -70 91q-18 5 -41 5l-256 -327l-204 235q81 66 203.5 99.5t256.5 33.5q89 0 172 -21.5t150.5 -60.5t108 -102t40.5 -139v-578l123 -133h-471v154q-53 -75 -148 -119.5t-190 -44.5q-55 0 -110 19.5 t-102 55.5t-76 94t-29 128zM184 1434h410l61 -328zM399 317q0 -69 47.5 -113.5t113.5 -45.5t136 37v399q-50 -4 -95.5 -18t-94 -43t-78 -84.5t-29.5 -131.5z" />
<glyph unicode="&#xe1;" horiz-adv-x="1187" d="M41 287q0 92 54 161.5t148 109t207 58.5t246 19q0 204 -12 262q-16 76 -70 91q-18 5 -41 5l-256 -327l-204 235q81 66 203.5 99.5t256.5 33.5q89 0 172 -21.5t150.5 -60.5t108 -102t40.5 -139v-578l123 -133h-471v154q-53 -75 -148 -119.5t-190 -44.5q-55 0 -110 19.5 t-102 55.5t-76 94t-29 128zM399 317q0 -69 47.5 -113.5t113.5 -45.5t136 37v399q-50 -4 -95.5 -18t-94 -43t-78 -84.5t-29.5 -131.5zM532 1106l62 328h410z" />
<glyph unicode="&#xe2;" horiz-adv-x="1187" d="M41 287q0 92 54 161.5t148 109t207 58.5t246 19q0 204 -12 262q-16 76 -70 91q-18 5 -41 5l-256 -327l-204 235q81 66 203.5 99.5t256.5 33.5q89 0 172 -21.5t150.5 -60.5t108 -102t40.5 -139v-578l123 -133h-471v154q-53 -75 -148 -119.5t-190 -44.5q-55 0 -110 19.5 t-102 55.5t-76 94t-29 128zM236 1085l358 369l358 -369l-358 123zM399 317q0 -69 47.5 -113.5t113.5 -45.5t136 37v399q-50 -4 -95.5 -18t-94 -43t-78 -84.5t-29.5 -131.5z" />
<glyph unicode="&#xe3;" horiz-adv-x="1187" d="M41 287q0 92 54 161.5t148 109t207 58.5t246 19q0 204 -12 262q-16 76 -70 91q-18 5 -41 5l-256 -327l-204 235q81 66 203.5 99.5t256.5 33.5q89 0 172 -21.5t150.5 -60.5t108 -102t40.5 -139v-578l123 -133h-471v154q-53 -75 -148 -119.5t-190 -44.5q-55 0 -110 19.5 t-102 55.5t-76 94t-29 128zM276 1137v20q0 120 53 193t132 73q53 0 161 -51t146 -51q47 0 87.5 28.5t55.5 73.5v-30q0 -125 -51.5 -190.5t-132.5 -65.5q-53 0 -161 51t-146 51q-47 0 -88 -28.5t-56 -73.5zM399 317q0 -69 47.5 -113.5t113.5 -45.5t136 37v399 q-50 -4 -95.5 -18t-94 -43t-78 -84.5t-29.5 -131.5z" />
<glyph unicode="&#xe4;" horiz-adv-x="1187" d="M41 287q0 92 54 161.5t148 109t207 58.5t246 19q0 204 -12 262q-16 76 -70 91q-18 5 -41 5l-256 -327l-204 235q81 66 203.5 99.5t256.5 33.5q89 0 172 -21.5t150.5 -60.5t108 -102t40.5 -139v-578l123 -133h-471v154q-53 -75 -148 -119.5t-190 -44.5q-55 0 -110 19.5 t-102 55.5t-76 94t-29 128zM184 1270l205 205l205 -205l-205 -185zM399 317q0 -69 47.5 -113.5t113.5 -45.5t136 37v399q-50 -4 -95.5 -18t-94 -43t-78 -84.5t-29.5 -131.5zM594 1270l205 205l205 -205l-205 -185z" />
<glyph unicode="&#xe5;" horiz-adv-x="1187" d="M41 287q0 92 54 161.5t148 109t207 58.5t246 19q0 204 -12 262q-16 76 -70 91q-18 5 -41 5l-256 -327l-204 235q81 66 203.5 99.5t256.5 33.5q89 0 172 -21.5t150.5 -60.5t108 -102t40.5 -139v-578l123 -133h-471v154q-53 -75 -148 -119.5t-190 -44.5q-55 0 -110 19.5 t-102 55.5t-76 94t-29 128zM389 1311q0 85 60 145t145 60t145 -60t60 -145t-60 -145t-145 -60t-145 60t-60 145zM399 317q0 -69 47.5 -113.5t113.5 -45.5t136 37v399q-50 -4 -95.5 -18t-94 -43t-78 -84.5t-29.5 -131.5zM430 1311q0 -69 47.5 -116.5t116.5 -47.5t116.5 47.5 t47.5 116.5t-47.5 116.5t-116.5 47.5t-116.5 -47.5t-47.5 -116.5z" />
<glyph unicode="&#xe7;" horiz-adv-x="1075" d="M41 512q0 107 38.5 204t105.5 169.5t163 115.5t205 43q100 0 186.5 -17t142 -43.5t85.5 -46t47 -36.5l-205 -235l-256 338q-92 0 -112.5 -98t-20.5 -374q0 -127 87.5 -217t229.5 -90q93 0 157 33t150 111q-10 -48 -34 -99.5t-67 -104t-97.5 -93t-131 -66.5t-161.5 -26h-6 l-35 -41q109 0 184.5 -49.5t75.5 -125.5q0 -82 -72 -128t-184 -46q-88 0 -145.5 21t-79.5 43l102 151q35 -97 61.5 -140.5t61.5 -43.5q31 0 51.5 27t20.5 65q0 71 -45.5 108t-124.5 54l90 107q-203 19 -335 171.5t-132 358.5z" />
<glyph unicode="&#xe8;" horiz-adv-x="1116" d="M51 512q0 107 38.5 204t105.5 169.5t163 115.5t205 43q144 0 263 -72.5t184 -189.5t65 -250h-645q0 -92 47 -164.5t114 -107.5t136 -35q74 0 132.5 18.5t98 45.5t97.5 80q-10 -48 -34.5 -99.5t-67 -104t-97.5 -93t-131.5 -66.5t-161.5 -26q-109 0 -205 43t-163 115.5 t-105.5 169.5t-38.5 204zM154 1434h409l62 -328zM430 573h266q0 89 -0.5 130t-4 102.5t-12 88.5t-23 57.5t-37.5 41.5t-56 11t-56 -11t-37.5 -41.5t-23 -57.5t-12 -88.5t-4 -102.5t-0.5 -130z" />
<glyph unicode="&#xe9;" horiz-adv-x="1116" d="M51 512q0 107 38.5 204t105.5 169.5t163 115.5t205 43q144 0 263 -72.5t184 -189.5t65 -250h-645q0 -92 47 -164.5t114 -107.5t136 -35q74 0 132.5 18.5t98 45.5t97.5 80q-10 -48 -34.5 -99.5t-67 -104t-97.5 -93t-131.5 -66.5t-161.5 -26q-109 0 -205 43t-163 115.5 t-105.5 169.5t-38.5 204zM430 573h266q0 89 -0.5 130t-4 102.5t-12 88.5t-23 57.5t-37.5 41.5t-56 11t-56 -11t-37.5 -41.5t-23 -57.5t-12 -88.5t-4 -102.5t-0.5 -130zM502 1106l61 328h410z" />
<glyph unicode="&#xea;" horiz-adv-x="1116" d="M51 512q0 107 38.5 204t105.5 169.5t163 115.5t205 43q144 0 263 -72.5t184 -189.5t65 -250h-645q0 -92 47 -164.5t114 -107.5t136 -35q74 0 132.5 18.5t98 45.5t97.5 80q-10 -48 -34.5 -99.5t-67 -104t-97.5 -93t-131.5 -66.5t-161.5 -26q-109 0 -205 43t-163 115.5 t-105.5 169.5t-38.5 204zM205 1085l358 369l359 -369l-359 123zM430 573h266q0 89 -0.5 130t-4 102.5t-12 88.5t-23 57.5t-37.5 41.5t-56 11t-56 -11t-37.5 -41.5t-23 -57.5t-12 -88.5t-4 -102.5t-0.5 -130z" />
<glyph unicode="&#xeb;" horiz-adv-x="1116" d="M51 512q0 107 38.5 204t105.5 169.5t163 115.5t205 43q144 0 263 -72.5t184 -189.5t65 -250h-645q0 -92 47 -164.5t114 -107.5t136 -35q74 0 132.5 18.5t98 45.5t97.5 80q-10 -48 -34.5 -99.5t-67 -104t-97.5 -93t-131.5 -66.5t-161.5 -26q-109 0 -205 43t-163 115.5 t-105.5 169.5t-38.5 204zM154 1270l204 205l205 -205l-205 -185zM430 573h266q0 89 -0.5 130t-4 102.5t-12 88.5t-23 57.5t-37.5 41.5t-56 11t-56 -11t-37.5 -41.5t-23 -57.5t-12 -88.5t-4 -102.5t-0.5 -130zM563 1270l205 205l205 -205l-205 -185z" />
<glyph unicode="&#xec;" horiz-adv-x="665" d="M-31 1434h410l61 -328zM41 0l123 133v758l-123 133h471v-891l123 -133h-594z" />
<glyph unicode="&#xed;" horiz-adv-x="665" d="M41 0l123 133v758l-123 133h471v-891l123 -133h-594zM215 1106l61 328h410z" />
<glyph unicode="&#xee;" horiz-adv-x="675" d="M-61 1085l358 369l358 -369l-358 123zM41 0l123 133v758l-123 133h471v-891l123 -133h-594z" />
<glyph unicode="&#xef;" horiz-adv-x="665" d="M-113 1270l205 205l205 -205l-205 -185zM41 0l123 133v758l-123 133h471v-891l123 -133h-594zM297 1270l205 205l205 -205l-205 -185z" />
<glyph unicode="&#xf1;" horiz-adv-x="1290" d="M41 0l123 133v758l-123 133h471v-141q127 151 317 151q161 0 249.5 -86.5t88.5 -240.5v-574l123 -133h-594l123 133v563q0 47 -16.5 83t-41.5 54.5t-49.5 27.5t-45.5 9q-94 0 -154 -43v-694l123 -133h-594zM338 1137v20q0 120 52.5 193t131.5 73q54 0 161 -51t146 -51 q47 0 88 28.5t56 73.5v-30q0 -125 -52 -190.5t-133 -65.5q-54 0 -161 51t-146 51q-47 0 -87.5 -28.5t-55.5 -73.5z" />
<glyph unicode="&#xf2;" horiz-adv-x="1105" d="M41 512q0 107 38.5 204t105.5 169.5t163 115.5t205 43t205 -43t163 -115.5t105.5 -169.5t38.5 -204t-38.5 -204t-105.5 -169.5t-163 -115.5t-205 -43t-205 43t-163 115.5t-105.5 169.5t-38.5 204zM143 1434h410l61 -328zM420 512q0 -277 12 -356q16 -104 71 -127 q21 -9 50 -9q93 0 113 95t20 397q0 277 -12 356q-16 104 -71 127q-21 9 -50 9q-93 0 -113 -95t-20 -397z" />
<glyph unicode="&#xf3;" horiz-adv-x="1105" d="M41 512q0 107 38.5 204t105.5 169.5t163 115.5t205 43t205 -43t163 -115.5t105.5 -169.5t38.5 -204t-38.5 -204t-105.5 -169.5t-163 -115.5t-205 -43t-205 43t-163 115.5t-105.5 169.5t-38.5 204zM420 512q0 -277 12 -356q16 -104 71 -127q21 -9 50 -9q93 0 113 95 t20 397q0 277 -12 356q-16 104 -71 127q-21 9 -50 9q-93 0 -113 -95t-20 -397zM492 1106l61 328h410z" />
<glyph unicode="&#xf4;" horiz-adv-x="1105" d="M41 512q0 107 38.5 204t105.5 169.5t163 115.5t205 43t205 -43t163 -115.5t105.5 -169.5t38.5 -204t-38.5 -204t-105.5 -169.5t-163 -115.5t-205 -43t-205 43t-163 115.5t-105.5 169.5t-38.5 204zM195 1085l358 369l358 -369l-358 123zM420 512q0 -277 12 -356 q16 -104 71 -127q21 -9 50 -9q93 0 113 95t20 397q0 277 -12 356q-16 104 -71 127q-21 9 -50 9q-93 0 -113 -95t-20 -397z" />
<glyph unicode="&#xf5;" horiz-adv-x="1105" d="M41 512q0 107 38.5 204t105.5 169.5t163 115.5t205 43t205 -43t163 -115.5t105.5 -169.5t38.5 -204t-38.5 -204t-105.5 -169.5t-163 -115.5t-205 -43t-205 43t-163 115.5t-105.5 169.5t-38.5 204zM236 1137v20q0 120 52.5 193t131.5 73q53 0 160.5 -51t146.5 -51 q47 0 87.5 28.5t55.5 73.5v-30q0 -125 -51.5 -190.5t-132.5 -65.5q-54 0 -161 51t-146 51q-47 0 -87.5 -28.5t-55.5 -73.5zM420 512q0 -277 12 -356q16 -104 71 -127q21 -9 50 -9q93 0 113 95t20 397q0 277 -12 356q-16 104 -71 127q-21 9 -50 9q-93 0 -113 -95t-20 -397z " />
<glyph unicode="&#xf6;" horiz-adv-x="1105" d="M41 512q0 107 38.5 204t105.5 169.5t163 115.5t205 43t205 -43t163 -115.5t105.5 -169.5t38.5 -204t-38.5 -204t-105.5 -169.5t-163 -115.5t-205 -43t-205 43t-163 115.5t-105.5 169.5t-38.5 204zM143 1270l205 205l205 -205l-205 -185zM420 512q0 -277 12 -356 q16 -104 71 -127q21 -9 50 -9q93 0 113 95t20 397q0 277 -12 356q-16 104 -71 127q-21 9 -50 9q-93 0 -113 -95t-20 -397zM553 1270l205 205l205 -205l-205 -185z" />
<glyph unicode="&#xf7;" horiz-adv-x="1024" d="M61 635v41h902v-41h-902zM379 338l133 133l133 -133l-133 -133zM379 973l133 133l133 -133l-133 -133z" />
<glyph unicode="&#xf9;" horiz-adv-x="1269" d="M0 1024h471v-696q0 -47 16.5 -83t42 -54.5t50 -27.5t45.5 -9q93 0 153 43v694l-123 133h471v-891l123 -133h-471v141q-127 -151 -317 -151q-161 0 -249.5 86.5t-88.5 240.5v574zM215 1434h410l61 -328z" />
<glyph unicode="&#xfa;" horiz-adv-x="1269" d="M0 1024h471v-696q0 -47 16.5 -83t42 -54.5t50 -27.5t45.5 -9q93 0 153 43v694l-123 133h471v-891l123 -133h-471v141q-127 -151 -317 -151q-161 0 -249.5 86.5t-88.5 240.5v574zM471 1106l61 328h410z" />
<glyph unicode="&#xfb;" horiz-adv-x="1269" d="M0 1024h471v-696q0 -47 16.5 -83t42 -54.5t50 -27.5t45.5 -9q93 0 153 43v694l-123 133h471v-891l123 -133h-471v141q-127 -151 -317 -151q-161 0 -249.5 86.5t-88.5 240.5v574zM266 1085l359 369l358 -369l-358 123z" />
<glyph unicode="&#xfc;" horiz-adv-x="1269" d="M0 1024h471v-696q0 -47 16.5 -83t42 -54.5t50 -27.5t45.5 -9q93 0 153 43v694l-123 133h471v-891l123 -133h-471v141q-127 -151 -317 -151q-161 0 -249.5 86.5t-88.5 240.5v574zM215 1270l205 205l205 -205l-205 -185zM625 1270l204 205l205 -205l-205 -185z" />
<glyph unicode="&#xfd;" horiz-adv-x="1034" d="M0 1024h532l-102 -133l236 -645l194 512l-164 266h318l-441 -1147q-7 -16 -26.5 -63.5t-32.5 -78t-39 -73.5t-52 -69t-64.5 -45t-82.5 -19q-53 0 -97 17.5t-67.5 42t-36 43.5t-14.5 30l154 205l236 -133l16 41zM446 1106l62 328h410z" />
<glyph unicode="&#xff;" horiz-adv-x="1034" d="M0 1024h532l-102 -133l236 -645l194 512l-164 266h318l-441 -1147q-7 -16 -26.5 -63.5t-32.5 -78t-39 -73.5t-52 -69t-64.5 -45t-82.5 -19q-53 0 -97 17.5t-67.5 42t-36 43.5t-14.5 30l154 205l236 -133l16 41zM98 1270l205 205l205 -205l-205 -185zM508 1270l205 205 l205 -205l-205 -185z" />
<glyph unicode="&#x178;" horiz-adv-x="1341" d="M20 1434l451 -902v-368l-123 -164h656l-123 164v430l256 502l215 338h-451l184 -338l-215 -420l-297 594l123 164h-676zM307 1700l205 205l205 -205l-205 -184zM717 1700l205 205l204 -205l-204 -184z" />
<glyph unicode="&#x2c6;" horiz-adv-x="839" d="M61 1085l359 369l358 -369l-358 123z" />
<glyph unicode="&#x2dc;" horiz-adv-x="757" d="M61 1137v20q0 120 53 193t132 73q54 0 161 -51t146 -51q47 0 87.5 28.5t55.5 73.5v-30q0 -125 -51.5 -190.5t-132.5 -65.5q-54 0 -161 51t-146 51q-47 0 -88 -28.5t-56 -73.5z" />
<glyph unicode="&#x2000;" horiz-adv-x="962" />
<glyph unicode="&#x2001;" horiz-adv-x="1925" />
<glyph unicode="&#x2002;" horiz-adv-x="962" />
<glyph unicode="&#x2003;" horiz-adv-x="1925" />
<glyph unicode="&#x2004;" horiz-adv-x="641" />
<glyph unicode="&#x2005;" horiz-adv-x="481" />
<glyph unicode="&#x2006;" horiz-adv-x="320" />
<glyph unicode="&#x2007;" horiz-adv-x="320" />
<glyph unicode="&#x2008;" horiz-adv-x="240" />
<glyph unicode="&#x2009;" horiz-adv-x="385" />
<glyph unicode="&#x200a;" horiz-adv-x="106" />
<glyph unicode="&#x2010;" horiz-adv-x="655" d="M61 492v40h533v-40h-533z" />
<glyph unicode="&#x2011;" horiz-adv-x="655" d="M61 492v40h533v-40h-533z" />
<glyph unicode="&#x2012;" horiz-adv-x="655" d="M61 492v40h533v-40h-533z" />
<glyph unicode="&#x2013;" horiz-adv-x="1024" d="M10 492v40h1004v-40h-1004z" />
<glyph unicode="&#x2014;" horiz-adv-x="2048" d="M10 492v40h2028v-40h-2028z" />
<glyph unicode="&#x2018;" horiz-adv-x="491" d="M41 1053q0 55 34 113.5t90 109t117.5 92t127.5 74.5l20 -21q-43 -34 -62.5 -50.5t-42 -42.5t-30.5 -51.5t-8 -59.5q0 -26 11 -48t38 -43t49 -35t66 -38l-205 -205q-53 29 -81.5 46t-61.5 43.5t-47.5 54.5t-14.5 61z" />
<glyph unicode="&#x2019;" horiz-adv-x="491" d="M41 1237l205 205q53 -29 81.5 -46t61.5 -43.5t47.5 -54.5t14.5 -61q0 -55 -34 -113.5t-90 -109t-117.5 -92t-127.5 -74.5l-21 20q43 34 62.5 51t42.5 43t31 51.5t8 59.5q0 26 -11 48t-38 43t-49 35t-66 38z" />
<glyph unicode="&#x201c;" horiz-adv-x="983" d="M41 1053q0 55 34 113.5t90 109t117.5 92t127.5 74.5l20 -21q-43 -34 -62.5 -50.5t-42 -42.5t-30.5 -51.5t-8 -59.5q0 -26 11 -48t38 -43t49 -35t66 -38l-205 -205q-53 29 -81.5 46t-61.5 43.5t-47.5 54.5t-14.5 61zM532 1053q0 55 34 113.5t90 109t117.5 92t127.5 74.5 l21 -21q-44 -34 -63 -50.5t-42 -42.5t-31 -51.5t-8 -59.5q0 -26 11 -48t38 -43t49 -35t66 -38l-205 -205q-53 29 -81.5 46t-61.5 43.5t-47.5 54.5t-14.5 61z" />
<glyph unicode="&#x201d;" horiz-adv-x="983" d="M41 1237l205 205q43 -24 68.5 -39.5t62.5 -43.5t55.5 -59t18.5 -63q0 -55 -34 -113.5t-90 -109t-117.5 -92t-127.5 -74.5l-21 20q43 34 62.5 51t42.5 43t31 51.5t8 59.5q0 21 -11 41.5t-25.5 36t-39 33t-43 28t-45.5 25.5zM532 1237l205 205q43 -24 68.5 -39.5 t62.5 -43.5t55.5 -59t18.5 -63q0 -55 -34 -113.5t-90 -109t-117.5 -92t-127.5 -74.5l-20 20q56 44 80.5 66.5t43.5 58.5t19 80q0 21 -11 41.5t-25.5 36t-39 33t-43 28t-45.5 25.5z" />
<glyph unicode="&#x2022;" horiz-adv-x="819" d="M102 676l308 307l307 -307l-307 -277z" />
<glyph unicode="&#x2026;" horiz-adv-x="1556" d="M41 143l205 205l205 -205l-205 -184zM573 143l205 205l205 -205l-205 -184zM1106 143l205 205l205 -205l-205 -184z" />
<glyph unicode="&#x202f;" horiz-adv-x="385" />
<glyph unicode="&#x2039;" horiz-adv-x="569" d="M41 512l430 512h57l-430 -512l430 -512h-57z" />
<glyph unicode="&#x203a;" horiz-adv-x="569" d="M41 0l430 512l-430 512h57l430 -512l-430 -512h-57z" />
<glyph unicode="&#x205f;" horiz-adv-x="481" />
<glyph unicode="&#x20ac;" horiz-adv-x="1392" d="M0 573v41h170q-6 50 -6 103t6 102h-170v41h174q20 127 74.5 234t139.5 188t206.5 126.5t265.5 45.5q108 0 242.5 -24.5t228.5 -67.5v-410l-346 443q-46 18 -125 18q-138 0 -197 -133.5t-67 -419.5h408v-41h-410v-102q0 -70 2 -103h408v-41h-408q12 -282 79 -417.5 t206 -135.5q55 0 104 19l346 442v-409q-94 -43 -228.5 -67.5t-242.5 -24.5q-145 0 -266 45.5t-206 126t-139.5 187.5t-74.5 234h-174z" />
<glyph unicode="&#x2122;" horiz-adv-x="1628" d="M61 1227v207h631v-207l-174 186h-41v-592l62 -84h-320l57 84v592h-36zM741 737l99 185v370l-68 142h219l197 -422l119 291v131h260l-64 -84v-529l64 -84h-318l58 84v426l-209 -516l-238 516v-325l101 -185h-220z" />
<glyph unicode="&#x25fc;" horiz-adv-x="1024" d="M0 0v1024h1024v-1024h-1024z" />
</font>
</defs>
</svg>
